# xmcd
#
# Track frame offsets:
#	150
#	22620
#	36317
#	51300
#	67927
#	76058
#	95845
#	111464
#	128229
#	154319
#	165693
#	191522
#	212946
#	233031
#	254021
#	285988
#	303142
#	322281
#	328434
#
# Disc length: 4438 seconds
#
# Revision: 0
# Processed by: cddbd v1.4PL0 Copyright (c) Steve Scherf et al.
# Submitted via: dBpowerAMP V4.0
#
DISCID=16115413
DTITLE=swing crew - the swing crew live
DYEAR=2001
DGENRE=Dance
TTITLE0=Jamaica farwell
TTITLE1=another saturday night
TTITLE2=zamboni
TTITLE3=dream vacation in the dells
TTITLE4=summer sausage polka
TTITLE5=still the night
TTITLE6=mustang sally
TTITLE7=volcano
TTITLE8=brown-eyed girl
TTITLE9=mary mac
TTITLE10=shake rattle and roll
TTITLE11=Track1leinenkugel beer
TTITLE12=werewolves in london
TTITLE13=rockin' in the free world
TTITLE14=wild thing
TTITLE15=the tide is high
TTITLE16=bang on the drum
TTITLE17=stairway to heaven
TTITLE18=phesant plucker's song
EXTD=fun, live, show
EXTT0=
EXTT1=
EXTT2=
EXTT3=
EXTT4=
EXTT5=
EXTT6=
EXTT7=
EXTT8=
EXTT9=
EXTT10=
EXTT11=
EXTT12=
EXTT13=
EXTT14=
EXTT15=
EXTT16=
EXTT17=
EXTT18=
PLAYORDER=
